PathFileType	4	(X/Y/Z)	/Users/niels/Desktop/University/Third Semester/Perception and Action/Exam/Gymnastics Motion Tracking/Code for Gym Tracking/Analyzed Data/Webcam_Backflip/id1_3_trajectory_Sports2D/id1_3_trajectory_Sports2D_px_person00.trc
DataRate	CameraRate	NumFrames	NumMarkers	Units	OrigDataRate	OrigDataStartFrame	OrigNumFrames
29.87551867219917	29.87551867219917	11	22	m	29.87551867219917	180	241
Frame#	Time	Hip			RHip			RKnee			RAnkle			RBigToe			RSmallToe			RHeel			LHip			LKnee			LAnkle			LBigToe			LSmallToe			LHeel			Neck			Head			Nose			RShoulder			RElbow			RWrist			LShoulder			LElbow			LWrist		
		X1	Y1	Z1	X2	Y2	Z2	X3	Y3	Z3	X4	Y4	Z4	X5	Y5	Z5	X6	Y6	Z6	X7	Y7	Z7	X8	Y8	Z8	X9	Y9	Z9	X10	Y10	Z10	X11	Y11	Z11	X12	Y12	Z12	X13	Y13	Z13	X14	Y14	Z14	X15	Y15	Z15	X16	Y16	Z16	X17	Y17	Z17	X18	Y18	Z18	X19	Y19	Z19	X20	Y20	Z20	X21	Y21	Z21	X22	Y22	Z22
180	6.025	0.903770013419738	-0.5998231423524745	0.0	0.8935656214783627	-0.60127238510588	0.0	0.8976072379856932	-0.7025251374081722	0.0	0.8895663729138042	-0.8223409119348436	0.0	0.9338976647299299	-0.8385204033655103	0.0	0.924469400454074	-0.8428931904076082	0.0	0.8817295865011792	-0.8400499464487632	0.0	0.9154593415297225	-0.6013994935486257	0.0	0.9397094338234955	-0.6977923893212579	0.0	0.8909009655098408	-0.7949045465579828	0.0	0.9336086155840686	-0.8251764102501699	0.0	0.9272146615677094	-0.8174112537360915	0.0	0.8770183772859702	-0.807991944082974	0.0	0.9122192478957941	-0.43784965646389784	0.0	0.9309860170407177	-0.36776566181350906	0.0	0.9336046027561914	-0.408964892635528	0.0	0.881502849808513	-0.4592209176893906	0.0	0.8543307330138453	-0.5290987577901317	0.0	0.881693824887373	-0.5982282006842611	0.0	0.9214754556170557	-0.4643258243352023	0.0	0.9171896316554219	-0.54038907022609	0.0	0.945965164515484	-0.5984044569432496	0.0
181	6.058472222222222	0.9044122870259713	-0.6005920122177975	0.0	0.8942588401853934	-0.6018807790847801	0.0	0.8985062132617463	-0.7026806390142847	0.0	0.8892888907169108	-0.8210468365030299	0.0	0.9329556410642816	-0.838091945072791	0.0	0.9231753570311791	-0.8420678765964903	0.0	0.8817686842668291	-0.8384947550000454	0.0	0.9157405462277676	-0.6023438832732596	0.0	0.9348133642052582	-0.7002268522166717	0.0	0.8925080732125359	-0.8006151477910344	0.0	0.9357954501516904	-0.8277624114010906	0.0	0.9299901973032697	-0.8216064955955342	0.0	0.8791876937188935	-0.8153721280303866	0.0	0.9125981444189137	-0.43860619955213925	0.0	0.9315714660384177	-0.3681434650705788	0.0	0.9338646833137324	-0.4096060383293931	0.0	0.8818365494415092	-0.4599465876947025	0.0	0.8537221206059283	-0.5291876380811511	0.0	0.8825166425045589	-0.5971465851114475	0.0	0.9217296524381139	-0.46525049925934875	0.0	0.9169035816270841	-0.5404673571465591	0.0	0.9442505249753436	-0.5993620526092951	0.0
182	6.091944444444445	0.9051480161984244	-0.6006868419187161	0.0	0.8949914396560888	-0.6016803180508689	0.0	0.8992340240711573	-0.7028015809136439	0.0	0.8890883977226545	-0.8193779911700986	0.0	0.9322743940830843	-0.8371443836573202	0.0	0.9223657946271786	-0.8407990632360496	0.0	0.8815969986070374	-0.8366712850509145	0.0	0.9162230634219428	-0.6026268333709323	0.0	0.9295574227208317	-0.7021263053900979	0.0	0.8933301152548887	-0.8048695064855301	0.0	0.9366758846100961	-0.8293886773977295	0.0	0.9315425104793085	-0.8243685153066173	0.0	0.880158849016189	-0.8206427201797357	0.0	0.9129833138728278	-0.43883338717171566	0.0	0.9316433946767528	-0.3685391185243292	0.0	0.933796110933165	-0.40990674489600976	0.0	0.8820358394812078	-0.46032870119518166	0.0	0.8529473228601107	-0.5288793446295421	0.0	0.8831284835786577	-0.5958172589348723	0.0	0.9223038775304808	-0.4658138293028552	0.0	0.9170708084217265	-0.5401499171712622	0.0	0.9424923939466056	-0.5997746089934385	0.0
183	6.125416666666667	0.9058843091325389	-0.6001585042944385	0.0	0.8957034214338547	-0.6007392102335043	0.0	0.8996986040776501	-0.7027851670627532	0.0	0.8889585765360739	-0.817589389032838	0.0	0.9319557313857192	-0.8358112523773022	0.0	0.9221483375782087	-0.8392585736303677	0.0	0.8812915076868629	-0.8348395439863453	0.0	0.9168008743611294	-0.6022442558725384	0.0	0.9245271521968677	-0.7032517630595695	0.0	0.8936165736572023	-0.8076081786541062	0.0	0.9366965701425678	-0.8300821297312283	0.0	0.9322356273266599	-0.825672723894043	0.0	0.880315534315283	-0.8237575596223139	0.0	0.9133948742157821	-0.4385231172735746	0.0	0.9313788410191947	-0.3688642130462502	0.0	0.933559132149493	-0.40987645213824836	0.0	0.8821811642886336	-0.4603106515952209	0.0	0.8523316855776811	-0.5282463907815382	0.0	0.8835046438670767	-0.5944671078356459	0.0	0.923178336428935	-0.4658696921465956	0.0	0.91757880653055	-0.5395477389123289	0.0	0.9408359938014238	-0.5997897395919887	0.0
184	6.158888888888889	0.9065714235562031	-0.5991597199125611	0.0	0.8963361988456243	-0.5992536519400836	0.0	0.8999557430556279	-0.7024997473094382	0.0	0.8888568336598975	-0.8158468994533029	0.0	0.9318900464829727	-0.8343478005093037	0.0	0.9223247155765589	-0.8376638220983623	0.0	0.8809573430071869	-0.8331252213156771	0.0	0.9173646858398262	-0.601277484795439	0.0	0.9201310018592124	-0.7035508452712801	0.0	0.8936093363360066	-0.8089672210559149	0.0	0.9362958208352862	-0.8300692596886058	0.0	0.9324589368674265	-0.8259024460055238	0.0	0.8800874686552252	-0.8250913738521417	0.0	0.9138154462752919	-0.4377424249058903	0.0	0.9311376897640005	-0.3688898743770937	0.0	0.93334328459157	-0.4094891492778927	0.0	0.8823352151629146	-0.45984840589913145	0.0	0.8521470806497035	-0.5273772030339291	0.0	0.8836013997169879	-0.593321231972883	0.0	0.9242367263480759	-0.4653439997841583	0.0	0.91825493531412	-0.5386123679934486	0.0	0.9393850042103321	-0.5995212928146355	0.0
185	6.192361111111111	0.9072178678902719	-0.5978558638862257	0.0	0.8969016092377544	-0.5974172867540491	0.0	0.9001278570299248	-0.7018610499418538	0.0	0.8887282709485844	-0.8141953836970579	0.0	0.9319075136759711	-0.8329688767503678	0.0	0.9226200684459865	-0.8361707619711292	0.0	0.8806486365078356	-0.8315362743202358	0.0	0.9178651688631809	-0.5998315467785305	0.0	0.9165720169035779	-0.7031255119445955	0.0	0.8934715664557873	-0.8092116888275814	0.0	0.9358029379298882	-0.8296346812055914	0.0	0.932514787922008	-0.8255554001189698	0.0	0.8797928299558964	-0.8251764537206862	0.0	0.9142241194168425	-0.4365873977114214	0.0	0.9311997859160258	-0.3684393650647146	0.0	0.9332929075496708	-0.40871929604859025	0.0	0.8825560278775989	-0.4589493676772303	0.0	0.8525440477319361	-0.526341444015106	0.0	0.883423395858412	-0.5925135385444035	0.0	0.9253337330332331	-0.464275871576605	0.0	0.9189733605858167	-0.5372733453904363	0.0	0.9381984955334787	-0.5989427191804878	0.0
186	6.225833333333333	0.9078648719956147	-0.5963750622317372	0.0	0.8974751705087497	-0.5953770135291262	0.0	0.9002872510357988	-0.7008779619025818	0.0	0.8885358454139038	-0.8126085396529665	0.0	0.9318708573430773	-0.8317914704299003	0.0	0.9228041783905165	-0.8348728720081542	0.0	0.8803698803045694	-0.8300315555314032	0.0	0.9183440764583767	-0.5980120796070378	0.0	0.9138794541884258	-0.7021522604007994	0.0	0.8932848115763308	-0.8086519043898736	0.0	0.9353835527277107	-0.8290418400984106	0.0	0.9325480314814605	-0.8250384768057492	0.0	0.8796228678417242	-0.8245063980591568	0.0	0.9146121691775295	-0.4351598335732396	0.0	0.9316361846352521	-0.3674873346497533	0.0	0.9334775709814995	-0.4076071537795337	0.0	0.8828673278049016	-0.45769256676169584	0.0	0.8534993032769249	-0.5252001387956211	0.0	0.8830258886012609	-0.5920334733974985	0.0	0.9263721094072447	-0.4627976155633334	0.0	0.9196670348925081	-0.5355365249555498	0.0	0.9372888955199835	-0.597923859791659	0.0
187	6.259305555555556	0.908545012399941	-0.5947936796192664	0.0	0.8981479404697434	-0.5932422019332945	0.0	0.9004523759200718	-0.6996098047208907	0.0	0.8882781030911263	-0.8110551853537229	0.0	0.931659650067481	-0.8308269931300268	0.0	0.9226955148076033	-0.833809565630822	0.0	0.8801107588378861	-0.8285701549335643	0.0	0.918884203081539	-0.5959086257168124	0.0	0.911985195327447	-0.70081015159668	0.0	0.8930749889176498	-0.807553359052907	0.0	0.9350458354180534	-0.8284396137593756	0.0	0.9325580903579739	-0.8245392277684177	0.0	0.8796477246993356	-0.8234346118489283	0.0	0.9149728339772997	-0.43358785823768536	0.0	0.9323729475767726	-0.3661275843075552	0.0	0.9338841464199674	-0.4062544899034965	0.0	0.8832375746509966	-0.45622910588742316	0.0	0.8548155160167514	-0.5240331438856081	0.0	0.8824666168431033	-0.5917732972294198	0.0	0.927317822886274	-0.4610826532569884	0.0	0.920285073230235	-0.533476110753304	0.0	0.936633997822318	-0.5963894118610086	0.0
188	6.292777777777778	0.9092520557077091	-0.5931548678072748	0.0	0.8989639508431062	-0.591107106710996	0.0	0.900657306882849	-0.6981205865764889	0.0	0.8879773635939266	-0.8095249622010815	0.0	0.9311975451981953	-0.8299982260911573	0.0	0.9222196072038854	-0.8329497241036897	0.0	0.8798496340864288	-0.827137988853122	0.0	0.9195267604634378	-0.593619351261347	0.0	0.9107807924279078	-0.6992489664071224	0.0	0.8928368566793826	-0.8061120030657101	0.0	0.9347241900522771	-0.8278293330762949	0.0	0.9324950888241345	-0.8240281812453573	0.0	0.8798067375071572	-0.8221626036683882	0.0	0.915281606372072	-0.4320299953911198	0.0	0.9332751362474541	-0.3645037442436744	0.0	0.934408946502773	-0.4047731230785129	0.0	0.8835994478268575	-0.45475600550221223	0.0	0.8561968086438771	-0.5229439544637179	0.0	0.8817720355677279	-0.591608955825445	0.0	0.9281477608908674	-0.459304460956393	0.0	0.9207759343443115	-0.5312278061693173	0.0	0.9362058044539772	-0.5944397686810624	0.0
189	6.32625	0.9099345721373884	-0.5915184708070194	0.0	0.8998656693902491	-0.5890743764240938	0.0	0.900962021609965	-0.6965009106563274	0.0	0.8876675631369766	-0.8080476700320481	0.0	0.9305158969926232	-0.8292155909163292	0.0	0.9214493286711097	-0.8322174417772434	0.0	0.8795544896577782	-0.8257604800197018	0.0	0.9202384938930608	-0.5912961490051732	0.0	0.9101421341301278	-0.6975907279097256	0.0	0.8925576761149306	-0.804504258089511	0.0	0.9343792447771919	-0.8271609924858173	0.0	0.9323482455859721	-0.8234162931729475	0.0	0.8799413333186981	-0.8208064856961055	0.0	0.9154985548888888	-0.43064117457406553	0.0	0.9341937708805851	-0.3627693905184695	0.0	0.9349087343116849	-0.4032809776416927	0.0	0.8838767176981946	-0.4534583266096658	0.0	0.8573641752021837	-0.5220333244209755	0.0	0.8809616953836786	-0.5914668615942775	0.0	0.9288212362902479	-0.457614568754878	0.0	0.9211150755738222	-0.5289902888415614	0.0	0.9359927861010149	-0.592322074490637	0.0
190	6.3597222222222225	0.9105261773715312	-0.589998856296125	0.0	0.9007096289309335	-0.5872534583333068	0.0	0.9013955568760591	-0.6949030200986666	0.0	0.8873961221401575	-0.8067059482029093	0.0	0.9297531721754415	-0.8284489203267671	0.0	0.9205428536248903	-0.8315621477861798	0.0	0.8792172933217344	-0.8245013785510324	0.0	0.9209504026305444	-0.5891308845444079	0.0	0.9099358413648222	-0.6959513563777839	0.0	0.8922376044699092	-0.8029273264955743	0.0	0.9340422752029846	-0.8264495135758401	0.0	0.9321640694142977	-0.8227002836030439	0.0	0.8798881194115407	-0.8194781887151585	0.0	0.9156019547995011	-0.4295475548749904	0.0	0.9350031363573399	-0.36109551380853955	0.0	0.9353043935548118	-0.4019316190463443	0.0	0.8840023773629203	-0.45245479304869296	0.0	0.8581517044040556	-0.5213688296083411	0.0	0.8800904119755377	-0.5913387029735889	0.0	0.9293193459272783	-0.4561423130192888	0.0	0.921332652762986	-0.5269959378263966	0.0	0.9360132209110462	-0.5903259506298332	0.0
